<?xml version="1.0" standalone="no"?>
<!DOCTYPE svg PUBLIC "-//W3C//DTD SVG 20010904//EN"
 "http://www.w3.org/TR/2001/REC-SVG-20010904/DTD/svg10.dtd">
<svg version="1.0" xmlns="http://www.w3.org/2000/svg"
 width="50.000000pt" height="45.000000pt" viewBox="0 0 50.000000 45.000000"
 preserveAspectRatio="xMidYMid meet">

<g transform="translate(0.000000,45.000000) scale(0.100000,-0.100000)"
fill="#000000" stroke="none">
<path d="M162 437 c-12 -6 -22 -14 -22 -18 0 -4 34 -24 75 -45 l75 -38 0 -88
c0 -48 3 -88 6 -88 3 0 14 5 25 10 17 9 19 22 19 103 l0 92 -78 41 c-63 33
-82 39 -100 31z"/>
<path d="M92 396 c-28 -15 -24 -19 71 -66 l67 -33 0 -88 0 -89 25 12 c24 11
25 15 25 102 l0 91 -79 43 c-44 23 -81 42 -83 42 -2 -1 -13 -6 -26 -14z"/>
<path d="M25 356 c-17 -12 -13 -17 58 -56 l77 -42 0 -89 c0 -49 2 -89 5 -89 3
0 17 7 30 16 23 15 25 23 24 83 -2 100 -6 109 -83 152 -75 43 -84 45 -111 25z"/>
<path d="M273 123 c-46 -26 -83 -50 -83 -54 0 -13 30 -18 56 -9 44 17 73 11
127 -25 55 -38 97 -44 117 -20 17 20 8 28 -58 51 -68 24 -81 38 -56 65 16 17
16 22 4 29 -21 13 -16 15 -107 -37z m195 -94 c-5 -14 -21 -14 -26 0 -2 6 4 11
13 11 9 0 15 -5 13 -11z"/>
</g>
</svg>
